<?xml version="1.0" encoding="UTF-8"?>
<svg version="1.1" xmlns="http://www.w3.org/2000/svg" width="512" height="512">
<path d="M0 0 C1.3365287 -0.01469078 1.3365287 -0.01469078 2.70005798 -0.02967834 C22.60828118 -0.20334589 41.90456474 -0.03544421 61.4453125 4.23828125 C62.92451172 4.55974121 62.92451172 4.55974121 64.43359375 4.88769531 C113.29447026 15.88619536 161.14969796 42.34158506 193.4453125 81.23828125 C194.22777344 82.1096875 195.01023437 82.98109375 195.81640625 83.87890625 C224.76774894 116.38002403 243.92344787 159.36421165 250.4453125 202.23828125 C250.62046387 203.358396 250.79561523 204.47851074 250.97607422 205.63256836 C252.5800588 216.94273439 252.84456538 228.13833039 252.8203125 239.55078125 C252.81949677 240.99969254 252.81949677 240.99969254 252.81866455 242.47787476 C252.67723335 297.28359543 233.91294268 351.1405859 198.4453125 393.23828125 C198.00074707 393.77163086 197.55618164 394.30498047 197.09814453 394.85449219 C188.22536736 405.48522354 179.07675597 415.36819695 168.21484375 424.02734375 C166.40012249 425.47604929 164.60476024 426.94942113 162.83203125 428.44921875 C121.52207816 463.33317913 66.69507132 480.72710773 13.1328125 480.61328125 C12.16687164 480.61273743 11.20093079 480.6121936 10.20571899 480.6116333 C-5.69146444 480.57060916 -20.9742443 479.64585488 -36.5546875 476.23828125 C-37.54082031 476.02397461 -38.52695313 475.80966797 -39.54296875 475.58886719 C-80.68601851 466.32763679 -118.66455293 447.01341561 -149.5546875 418.23828125 C-150.94613416 417.02489906 -152.34177389 415.81630322 -153.7421875 414.61328125 C-160.23579506 408.92488103 -165.82997583 402.84849748 -171.23828125 396.11328125 C-172.72964128 394.26228465 -174.24130496 392.42737276 -175.77734375 390.61328125 C-186.48593264 377.92162035 -194.84788293 363.9027082 -202.5546875 349.23828125 C-202.90241211 348.58762695 -203.25013672 347.93697266 -203.60839844 347.26660156 C-214.77726192 326.11658788 -221.86063665 301.78641992 -225.5546875 278.23828125 C-225.73725098 277.08271729 -225.91981445 275.92715332 -226.10791016 274.73657227 C-227.70824137 263.46656388 -227.95385383 252.29750635 -227.9296875 240.92578125 C-227.92914368 239.95984039 -227.92859985 238.99389954 -227.92803955 237.99868774 C-227.88701541 222.10150431 -226.96226113 206.81872445 -223.5546875 191.23828125 C-223.34038086 190.25214844 -223.12607422 189.26601562 -222.90527344 188.25 C-213.64404304 147.10695024 -194.32982186 109.12841582 -165.5546875 78.23828125 C-164.34130531 76.84683459 -163.13270947 75.45119486 -161.9296875 74.05078125 C-123.14205848 29.64563355 -58.79801853 0.5366507 0 0 Z M-139.9765625 73.8125 C-142.22188111 75.92514069 -144.5136896 77.93608741 -146.8671875 79.92578125 C-150.83626102 83.38140173 -154.18312035 87.20766291 -157.5546875 91.23828125 C-158.30492187 92.10066406 -159.05515625 92.96304688 -159.828125 93.8515625 C-197.87372986 138.19809561 -217.32871797 197.21688965 -213.33203125 255.484375 C-209.05395151 306.15853078 -189.7359856 354.60193384 -154.74609375 391.89453125 C-152.79643864 393.97972389 -150.9517217 396.11495327 -149.1171875 398.30078125 C-131.90498566 417.93779674 -107.99529064 433.41842505 -84.46240234 444.35009766 C-82.6048228 445.21493953 -80.76194081 446.10660076 -78.91796875 447 C-25.62703687 472.16672708 36.04258132 471.51468609 90.89453125 452.26171875 C131.41857547 437.64918884 169.53404526 409.58079019 194.4453125 374.23828125 C194.92516602 373.55975098 195.40501953 372.8812207 195.89941406 372.18212891 C231.40301589 321.47733772 245.72354649 260.34401772 234.97460938 199.2409668 C227.18475546 158.07107468 208.41537311 119.23129422 179.671875 88.6171875 C177.70943935 86.52047993 175.85288951 84.37500811 174.0078125 82.17578125 C161.34998019 67.73474393 144.85292925 56.06372212 128.4453125 46.23828125 C127.80110352 45.84576172 127.15689453 45.45324219 126.49316406 45.04882812 C44.85569297 -4.26973986 -66.91619828 6.27603892 -139.9765625 73.8125 Z " fill="#2A8BFF" transform="translate(243.5546875,15.76171875)"/>
<path d="M0 0 C7.92 0 15.84 0 24 0 C24.4375 8.8125 24.4375 8.8125 24.56811523 11.57739258 C24.60622314 12.30079834 24.64433105 13.0242041 24.68359375 13.76953125 C24.72025146 14.50792236 24.75690918 15.24631348 24.79467773 16.00708008 C24.94842141 18.207495 24.94842141 18.207495 26 21 C28.05052135 21.75185783 30.10998871 22.48466163 32.19921875 23.12109375 C39.15031572 25.30240033 46.05709592 27.84255406 52.4375 31.375 C55.80446575 33.16719926 55.80446575 33.16719926 59 33.1875 C62.70908451 31.71932072 65.08942432 29.60485765 67.97265625 26.88671875 C70.20956658 24.80496983 72.61388079 22.90889537 75 21 C80.28 26.28 85.56 31.56 91 37 C85 44 85 44 82.1875 47 C79.57390183 50.58436321 79.19891513 52.59148561 79 57 C80.20034998 60.33814446 80.20034998 60.33814446 82.125 63.5625 C85.43375528 69.62800044 87.76527856 75.65714252 89.859375 82.234375 C90.81425672 85.27895821 90.81425672 85.27895821 94 87 C96.02542148 87.36351504 96.02542148 87.36351504 98.23046875 87.4140625 C98.95387451 87.44967285 99.67728027 87.4852832 100.42260742 87.52197266 C101.79122925 87.57297119 101.79122925 87.57297119 103.1875 87.625 C106.095625 87.74875 109.00375 87.8725 112 88 C112 95.92 112 103.84 112 112 C103.25 112.25 103.25 112.25 100.51269531 112.29785156 C97.03140109 112.44569374 94.63623813 112.60498461 91.640625 114.46484375 C89.23290404 118.1853459 87.90491211 122.12663174 86.5 126.3125 C83.31228721 135.67913553 83.31228721 135.67913553 80.79296875 139.890625 C78.74596463 142.89972635 78.74596463 142.89972635 78.8125 146.4375 C80.19605545 150.58816634 82.12406159 152.88242448 85.11328125 156.0078125 C87.20830596 158.2199504 89.09671066 160.62088833 91 163 C85.72 168.28 80.44 173.56 75 179 C68 173 68 173 65 170.1875 C61.41235645 167.57150991 59.41373686 167.19411199 55 167 C51.59412702 168.23442712 51.59412702 168.23442712 48.3125 170.1875 C42.84750562 173.1659293 37.54801786 175.30514024 31.5234375 176.98046875 C28.35825117 178.25928242 26.96178887 179.17376991 25 182 C24.38234468 185.08266154 24.30484189 188.11282004 24.25 191.25 C24.1675 194.1375 24.085 197.025 24 200 C16.08 200 8.16 200 0 200 C-0.25 191.25 -0.25 191.25 -0.29785156 188.51269531 C-0.44569374 185.03140109 -0.60498461 182.63623813 -2.46484375 179.640625 C-6.1853459 177.23290404 -10.12663174 175.90491211 -14.3125 174.5 C-23.67913553 171.31228721 -23.67913553 171.31228721 -27.890625 168.79296875 C-30.89972635 166.74596463 -30.89972635 166.74596463 -34.4375 166.8125 C-38.58816634 168.19605545 -40.88242448 170.12406159 -44.0078125 173.11328125 C-46.2199504 175.20830596 -48.62088833 177.09671066 -51 179 C-56.28 173.72 -61.56 168.44 -67 163 C-61 156 -61 156 -58.1875 153 C-55.57390183 149.41563679 -55.19891513 147.40851439 -55 143 C-56.20034998 139.66185554 -56.20034998 139.66185554 -58.125 136.4375 C-61.43375528 130.37199956 -63.76527856 124.34285748 -65.859375 117.765625 C-66.81425672 114.72104179 -66.81425672 114.72104179 -70 113 C-72.02542148 112.63648496 -72.02542148 112.63648496 -74.23046875 112.5859375 C-74.95387451 112.55032715 -75.67728027 112.5147168 -76.42260742 112.47802734 C-77.79122925 112.42702881 -77.79122925 112.42702881 -79.1875 112.375 C-82.095625 112.25125 -85.00375 112.1275 -88 112 C-88 104.08 -88 96.16 -88 88 C-79.25 87.75 -79.25 87.75 -76.51269531 87.70214844 C-73.02893682 87.55420161 -70.63638657 87.39616118 -67.640625 85.53125 C-65.24091373 81.82883833 -63.90558354 77.91540509 -62.5 73.75 C-60.58414332 68.17739403 -58.59355177 62.88442354 -55.77026367 57.70019531 C-54.81266799 55.854155 -54.81266799 55.854155 -54.8125 53 C-56.28067928 49.29091549 -58.39514235 46.91057568 -61.11328125 44.02734375 C-63.19503017 41.79043342 -65.09110463 39.38611921 -67 37 C-61.72 31.72 -56.44 26.44 -51 21 C-44 27 -44 27 -40.9375 29.8125 C-37.62195645 32.2815218 -36.0927259 32.79413834 -32 33 C-29.45427511 32.04463159 -27.25620026 31.07017619 -24.875 29.8125 C-18.4039478 26.58340316 -11.92899646 24.10587147 -5 22 C-4.01 21.67 -3.02 21.34 -2 21 C-1.11360611 18.34081834 -0.82010975 16.51935359 -0.68359375 13.76953125 C-0.64548584 13.04612549 -0.60737793 12.32271973 -0.56811523 11.57739258 C-0.52501221 10.66497803 -0.48190918 9.75256348 -0.4375 8.8125 C-0.293125 5.904375 -0.14875 2.99625 0 0 Z M-32.00390625 65.37890625 C-40.97333098 77.4479162 -45.72547617 92.18266323 -43.53515625 107.18359375 C-41.03876573 120.67001119 -35.72407837 130.3928779 -26 140 C-25.37351562 140.64839844 -24.74703125 141.29679687 -24.1015625 141.96484375 C-14.54586103 151.17783019 -1.37583622 155.40342946 11.6875 155.375 C12.85998291 155.37258301 12.85998291 155.37258301 14.05615234 155.37011719 C21.17581595 155.22145686 27.4006563 153.70143106 34 151 C34.74507813 150.69964844 35.49015625 150.39929688 36.2578125 150.08984375 C50.17161026 143.78771182 59.62813412 132.04667862 65 118 C69.94902042 101.28175434 68.29831707 86.77520365 60.01171875 71.26171875 C51.74591899 57.85988807 39.38836021 49.52902843 24.3671875 45.25 C3.00726501 40.42895166 -18.08084243 48.8503568 -32.00390625 65.37890625 Z " fill="#2A8CFF" transform="translate(244,156)"/>
<path d="M0 0 C9.98964273 7.1151807 16.78617472 16.5045007 19.7109375 28.45703125 C21.9066992 42.27375816 19.04750587 55.03534781 11.1640625 66.55859375 C4.25351147 75.0445386 -5.9433906 81.47098628 -16.875 83.0625 C-31.96938269 83.90558045 -44.00439774 81.59927602 -56.0625 71.875 C-60.42408234 67.86026317 -63.23757475 63.3373505 -65.875 58.0625 C-66.29007813 57.25296875 -66.70515625 56.4434375 -67.1328125 55.609375 C-71.54775693 45.54453664 -71.42859244 33.09445979 -68.375 22.625 C-63.97993101 11.51438853 -55.93181048 2.04460173 -45.15625 -3.28125 C-29.99100459 -9.52576282 -13.91036413 -8.81065617 0 0 Z " fill="#2A8CFF" transform="translate(280.875,217.9375)"/>
<path d="M0 0 C0.14695312 1.25103516 0.14695312 1.25103516 0.296875 2.52734375 C1.24355311 9.65191261 2.4878454 15.70835881 6 22 C6.40992188 22.74894531 6.81984375 23.49789062 7.2421875 24.26953125 C13.78297673 35.11541621 23.51163302 40.82373721 35.51953125 43.90234375 C38.67250877 44.64361799 41.82835791 45.34379819 45 46 C47.697236 61.31333986 44.45997033 77.06133791 35.8125 90.0625 C34.55690627 91.7199888 33.28570629 93.36575887 32 95 C31.39929688 95.86753906 30.79859375 96.73507813 30.1796875 97.62890625 C27.48873931 101.00050604 25.25297234 103.60160855 20.83789062 104.38232422 C15.52848536 104.7696919 10.29530164 104.46269626 5 104 C4.68546875 103.0821875 4.3709375 102.164375 4.046875 101.21875 C1.26644003 93.11650369 1.26644003 93.11650369 -2.375 85.375 C-4 82 -4 82 -3.9140625 80.09375 C-2.16682641 76.091534 1.56583524 73.51846181 4.75 70.6328125 C7.35950412 67.57933025 8 65.99879024 8 62 C4.98971108 56.16355585 0.32052642 51.87601081 -4.25 47.25 C-5.08402344 46.37472656 -5.91804688 45.49945313 -6.77734375 44.59765625 C-11.571504 39.45784812 -11.571504 39.45784812 -17.8515625 36.76171875 C-21.22169951 37.01677875 -22.56090748 37.42218009 -25.125 39.5625 C-25.78757812 40.11292969 -26.45015625 40.66335937 -27.1328125 41.23046875 C-29.69520584 43.6588457 -31.86067572 46.19213688 -34 49 C-38.20344998 48.36713857 -41.56176712 46.91477108 -45.375 45.0625 C-49.89176825 42.86879513 -54.1637181 41.26722829 -59 40 C-60.36037163 24.43130248 -60.36037163 24.43130248 -57.34765625 19.046875 C-55.03708914 16.72412564 -52.69012033 14.86702381 -50 13 C-49.21882813 12.36964844 -48.43765625 11.73929688 -47.6328125 11.08984375 C-33.37971848 0.08458591 -17.28397843 -1.74728744 0 0 Z " fill="#387AFF" transform="translate(337,130)"/>
<path d="M0 0 C3.56827453 2.79153931 6.81960228 5.77791167 10 9 C10.74507813 9.55816406 11.49015625 10.11632812 12.2578125 10.69140625 C14.98345821 14.30319238 14.42827644 17.86165694 14.25 22.25 C14.23195313 23.09046875 14.21390625 23.9309375 14.1953125 24.796875 C14.14830798 26.86507395 14.07656724 28.93268441 14 31 C13.24976563 31.23074219 12.49953125 31.46148437 11.7265625 31.69921875 C5.5048614 33.68170034 -0.16133638 35.91502618 -5.84375 39.14453125 C-8 40 -8 40 -10.06640625 39.87890625 C-12.57837131 38.73710395 -13.72834251 37.28019628 -15.4375 35.125 C-19.08492088 30.74379552 -19.08492088 30.74379552 -24 28 C-29.64925079 28.27388549 -32.26850528 29.50869953 -36.2421875 33.48046875 C-37.16257813 34.39763672 -38.08296875 35.31480469 -39.03125 36.25976562 C-39.49789062 36.74098877 -39.96453125 37.22221191 -40.4453125 37.71801758 C-41.87325064 39.18570195 -43.32831906 40.62168368 -44.7890625 42.05664062 C-50.95199101 47.97949072 -50.95199101 47.97949072 -53 56 C-50.797441 61.00855881 -46.77548589 64.13761637 -42.765625 67.71875 C-41 70 -41 70 -41.015625 72.27734375 C-42.34502251 75.95428844 -43.87686594 79.50659787 -45.5 83.0625 C-46.13837245 84.468714 -46.77388674 85.87622974 -47.40625 87.28515625 C-47.68791016 87.90269775 -47.96957031 88.52023926 -48.25976562 89.15649414 C-49.0325448 91.08105073 -49.54235945 92.97940534 -50 95 C-65.69433755 96.20725673 -65.69433755 96.20725673 -70.73046875 93.5703125 C-72.80509705 91.50810712 -74.38617495 89.43849359 -76 87 C-76.62003906 86.18273437 -77.24007812 85.36546875 -77.87890625 84.5234375 C-87.58139 71.43825064 -92.24405814 57.17560593 -90.625 40.75 C-90 37 -90 37 -89 36 C-87.27277272 35.77615618 -85.54303993 35.57160031 -83.8125 35.375 C-72.52622359 33.57027322 -61.03169124 27.76166475 -54.13671875 18.49609375 C-48.25187547 9.7358405 -45.8254256 1.28681017 -44 -9 C-28.49518183 -12.26417225 -13.29808967 -8.26766673 0 0 Z " fill="#1C9DFF" transform="translate(220,139)"/>
<path d="M0 0 C1.20366211 0.00966797 1.20366211 0.00966797 2.43164062 0.01953125 C3.26501953 0.03628906 4.09839844 0.05304688 4.95703125 0.0703125 C6.22450195 0.08384766 6.22450195 0.08384766 7.51757812 0.09765625 C9.60168368 0.12120547 11.68564342 0.15707603 13.76953125 0.1953125 C14.0840625 1.113125 14.39859375 2.0309375 14.72265625 2.9765625 C17.50309122 11.07880881 17.50309122 11.07880881 21.14453125 18.8203125 C22.76953125 22.1953125 22.76953125 22.1953125 22.61328125 24.1953125 C21.52111477 26.78415157 20.10068677 27.84902632 17.89453125 29.5703125 C14.44130062 32.47796989 12.17696664 34.78534829 10.76953125 39.1953125 C11.06233123 44.38819331 12.62887617 46.69430236 16.25 50.33984375 C17.16716797 51.26345703 18.08433594 52.18707031 19.02929688 53.13867188 C19.75113159 53.84479614 19.75113159 53.84479614 20.48754883 54.56518555 C21.9531019 56.00395496 23.39004623 57.46746909 24.82617188 58.93554688 C26.2115918 60.31129883 26.2115918 60.31129883 27.625 61.71484375 C28.46699951 62.55120361 29.30899902 63.38756348 30.17651367 64.24926758 C33.15197669 66.48233562 35.08066916 67.00222982 38.76953125 67.1953125 C43.77809006 64.9927535 46.90714762 60.97079839 50.48828125 56.9609375 C52.76953125 55.1953125 52.76953125 55.1953125 55.22265625 55.28125 C57.90850749 56.24519047 60.44900458 57.33014612 63.01953125 58.5703125 C67.86012478 60.83626198 72.6692094 62.60668766 77.76953125 64.1953125 C79.26818111 79.48154112 79.26818111 79.48154112 76.03515625 85.3359375 C66.48508335 95.26052307 51.29852865 103.57053043 37.38183594 104.32470703 C36.17382324 104.32639893 36.17382324 104.32639893 34.94140625 104.328125 C34.0596875 104.32941406 33.17796875 104.33070313 32.26953125 104.33203125 C31.36203125 104.32816406 30.45453125 104.32429688 29.51953125 104.3203125 C28.5965625 104.32417969 27.67359375 104.32804687 26.72265625 104.33203125 C25.84609375 104.33074219 24.96953125 104.32945312 24.06640625 104.328125 C23.26557617 104.32699707 22.46474609 104.32586914 21.63964844 104.32470703 C19.76953125 104.1953125 19.76953125 104.1953125 18.76953125 103.1953125 C18.46873285 101.38754391 18.20453959 99.5736447 17.95703125 97.7578125 C15.78931468 84.50018362 10.00549828 74.64928095 -0.9296875 66.69140625 C-8.7778421 61.58810708 -17.10381244 59.90899477 -26.23046875 58.1953125 C-28.31226105 41.0064599 -25.30306467 25.46673542 -15.23046875 11.1953125 C-6.13900115 -0.08707803 -6.13900115 -0.08707803 0 0 Z " fill="#1C9DFF" transform="translate(156.23046875,277.8046875)"/>
<path d="M0 0 C15.42906909 -1.34817109 15.42906909 -1.34817109 20.8828125 1.51171875 C23.29428091 3.84971948 25.11545869 6.21841703 27 9 C27.79627612 10.08637671 28.59317916 11.17229412 29.390625 12.2578125 C39.07018865 25.91840893 42.76993382 41.38039706 40 58 C38.29344776 59.70655224 35.89428626 59.49466417 33.5625 59.8125 C20.76334817 61.91792261 10.88208072 67.30252579 3.125 77.9375 C0.51929381 81.87041168 -1.36158334 85.8234068 -2.8828125 90.28515625 C-4 92 -4 92 -6.13671875 92.73046875 C-21.11170446 94.14011952 -34.36033874 92.81385062 -46.43359375 83.02734375 C-49.01708952 80.74209866 -51.51816328 78.39521723 -54 76 C-54.94230469 75.09765625 -55.88460938 74.1953125 -56.85546875 73.265625 C-62.04426095 68.20124671 -62.04426095 68.20124671 -64 66 C-64 65.34 -64 64.68 -64 64 C-63.0821875 63.68546875 -62.164375 63.3709375 -61.21875 63.046875 C-53.11650369 60.26644003 -53.11650369 60.26644003 -45.375 56.625 C-42 55 -42 55 -40.09375 55.0859375 C-36.091534 56.83317359 -33.51846181 60.56583524 -30.6328125 63.75 C-27.57933025 66.35950412 -25.99879024 67 -22 67 C-16.14686153 63.98646168 -11.87408283 59.28038587 -7.25 54.6875 C-6.37472656 53.84509766 -5.49945313 53.00269531 -4.59765625 52.13476562 C-3.35048828 50.89823242 -3.35048828 50.89823242 -2.078125 49.63671875 C-1.31918945 48.89123779 -0.56025391 48.14575684 0.22167969 47.37768555 C2.36750803 44.50862704 2.81120416 42.55654545 3 39 C0.40061539 32.78408029 -3.79916874 29.15309098 -9 25 C-8.36713857 20.79655002 -6.91477108 17.43823288 -5.0625 13.625 C-2.86879513 9.10823175 -1.26722829 4.8362819 0 0 Z " fill="#3979FF" transform="translate(342,278)"/>
<path d="M0 0 C0.69480469 0.42410156 1.38960937 0.84820312 2.10546875 1.28515625 C9.29096633 6.12491916 14.10975159 13.18261925 16.52734375 21.4921875 C18.63028655 32.6499501 16.69991796 42.79284128 10.4375 52.25 C5.48397197 58.34472056 -2.12029473 63.35755413 -9.9140625 64.7890625 C-19.77636835 65.78637433 -28.87626123 65.1783166 -37.1875 59.3125 C-45.78873791 52.22299481 -51.14055558 44.85904332 -52.37890625 33.53515625 C-52.75919387 22.23693373 -49.73616354 13.30788925 -42 5 C-31.03523426 -5.22296341 -13.01383141 -8.37162301 0 0 Z " fill="#14A7FF" transform="translate(148,100)"/>
<path d="M0 0 C7.04648973 4.79107919 11.90995547 11.97200907 14.2734375 20.14453125 C16.40795336 31.65692009 14.52654091 41.19433253 8.28125 51.02734375 C2.90997356 57.97840737 -5.59072747 62.44593264 -14.25 63.71484375 C-25.36438431 64.6861849 -34.60933575 61.76337025 -43.25 54.71484375 C-49.74386653 48.68379176 -53.82926597 40.60945295 -54.37109375 31.73046875 C-54.6851272 21.01638637 -51.92089456 13.20507318 -45.25 4.71484375 C-33.03911763 -7.75365217 -14.60880065 -8.34426287 0 0 Z " fill="#4070FF" transform="translate(401.25,101.28515625)"/>
<path d="M0 0 C6.88861654 5.61931291 11.28286454 12.8986977 13.03515625 21.66015625 C13.98366388 33.07872882 11.49420847 42.82796033 4.03515625 51.66015625 C-2.78193804 58.37260216 -11.51146868 61.81669973 -21.02734375 62.09765625 C-32.88007445 61.62232035 -40.80868364 57.32480817 -48.77734375 48.72265625 C-55.45307206 40.75436096 -56.70229673 31.80696296 -55.96484375 21.66015625 C-54.38576595 12.680824 -50.23563699 4.95679783 -43.02734375 -0.71484375 C-29.44946329 -10.06907056 -13.33619466 -9.57289458 0 0 Z " fill="#4070FF" transform="translate(402.96484375,354.33984375)"/>
<path d="M0 0 C8.48530015 6.01042094 13.58068856 13.27156602 16.5625 23.2109375 C16.645 24.0359375 16.7275 24.8609375 16.8125 25.7109375 C16.87566406 26.319375 16.93882812 26.9278125 17.00390625 27.5546875 C17.54242465 37.14378939 14.76088504 46.04366506 8.4375 53.2734375 C1.12767695 60.61891822 -6.53656 64.65503952 -17 65.1484375 C-27.40812731 64.72361598 -35.69521073 61.40460057 -43.09375 54.078125 C-50.5919632 45.60066754 -52.69157266 37.50565722 -52.5 26.21484375 C-51.76121528 17.93122009 -47.94871839 10.66419651 -42.1875 4.7109375 C-30.26003405 -5.21361436 -13.82023937 -8.14406963 0 0 Z " fill="#14A7FF" transform="translate(148.1875,351.2890625)"/>
</svg>
